# Wavefront Object File
# Generated using SpeedTree tools

mtllib shrub1_LOD1.mtl

v -0.00557201 0.26314 -0.040085
v 2.77538e-005 -0.00167421 -0.0218904
v -0.0227691 0.264852 -0.0102713
v -0.0190227 0.000438501 0.0109516
v 0.0116905 0.265102 -0.0103245
v 0.0189949 0.00123571 0.0109388
v -0.00389736 0.529305 -0.0504316
v -0.0192763 0.529617 -0.0236297
v 0.0115363 0.527267 -0.023737
v 0.034766 0.793488 -0.0189656
v 0.0213011 0.794384 0.00475261
v 0.0484265 0.791411 0.00456605
v 0.0542402 1.05591 -0.0332347
v 0.04229 1.05899 -0.0129806
v 0.0659574 1.05748 -0.0126728
v 0.0694234 1.32124 -0.0748229
v 0.0595738 1.32364 -0.0574553
v 0.0794532 1.3206 -0.0574044
v 0.134934 1.58611 -0.056341
v 0.126811 1.5872 -0.0420879
v 0.143137 1.58526 -0.0421178
v 0.132307 1.8504 -0.0753321
v 0.125807 1.85104 -0.0642354
v 0.138657 1.85023 -0.0641328
v 0.168297 2.11513 -0.0631508
v 0.163733 2.11544 -0.0551032
v 0.172905 2.11419 -0.0551762
v 0.598119 2.14691 -0.185444
v 0.318858 2.14403 -0.24701
v 0.486223 2.167 -0.0347867
v 0.136032 2.07345 -0.0453339
v -0.216547 2.24435 0.0783235
v -0.0483762 2.23643 0.12375
v -0.0413868 2.18095 -0.131976
v 0.190763 2.06874 -0.0611093
v -0.357812 1.86727 -0.197877
v -0.219176 1.86232 -0.0170999
v -0.0451179 1.79056 -0.272737
v 0.16114 1.66699 -0.0427887
v 0.597065 1.91883 0.00098713
v 0.456282 1.94386 -0.127968
v 0.310321 1.88759 0.115062
v 0.101376 1.81214 -0.0794336
v -0.390953 1.708 -0.394454
v -0.210646 1.63402 -0.0453217
v -0.117714 1.67897 -0.41519
v 0.150423 1.45697 -0.0315681
v 0.557471 1.65068 0.304451
v 0.506277 1.66232 0.0747011
v 0.217788 1.63955 0.236554
v 0.104671 1.53858 -0.0747656
v 0.334194 1.48357 0.51332
v 0.404421 1.4671 0.249573
v 0.0246066 1.46105 0.267926
v 0.0621765 1.30835 -0.098529
v -0.193829 1.26695 -0.684436
v -0.264166 1.30887 -0.395899
v 0.141052 1.19368 -0.408118
v 0.0646029 1.09639 0.0144759
v 0.0648872 1.30554 0.709566
v 0.248564 1.28653 0.449878
v -0.181481 1.20205 0.295505
v 0.0609757 0.999392 -0.0649216
v 0.0543934 1.07328 -0.808431
v -0.129294 1.13182 -0.53925
v 0.304397 1.00518 -0.363138
v 0.0309646 0.905349 0.0427709
v 0.393012 0.688088 -0.834749
v -0.0862538 0.62409 -0.507793
v 0.458104 0.697323 -0.460932
v -0.0248021 0.430091 0.0240488
v -0.325637 0.897136 0.761914
v -0.0129368 0.897009 0.584415
v -0.375818 0.829135 0.209385
v 0.0508708 0.62979 -0.0592659
v 0.720769 0.590453 -0.618343
v 0.33832 0.64325 -0.581359
v 0.504807 0.499308 -0.0486802
v -0.0660308 0.354455 -0.00205908
v -0.8076 0.518535 0.508078
v -0.386776 0.529412 0.529361
v -0.529617 0.402416 -0.0292303
v 0.0536744 0.20027 -0.0451411
v 0.00720947 2.48831 -0.0398446
v 0.10077 2.27511 0.0778956
v 0.0935262 2.38462 -0.142722
v 0.149505 2.0704 -0.0653239
v 0.468447 1.57864 -0.615252
v 0.160211 1.79227 -0.923424
v -0.0886744 1.80476 -0.612403
v 0.128359 1.58275 -0.0124668
v 0.414247 1.66696 -0.337111
v 0.371781 1.78385 0.437032
v -0.0905548 1.98942 0.387446
v 0.0795753 1.98581 0.666315
v 0.129828 1.77641 -0.0968162
v 0.357282 1.85929 0.187301
v 0.579975 1.27874 0.424355
v 1.00222 1.42377 0.141037
v 0.735172 1.44324 -0.173592
v 0.0341222 1.31547 -0.0692382
v 0.309807 1.41084 0.298273
v -0.525155 1.54665 0.129263
v -0.354916 1.65137 -0.441
v -0.715369 1.73308 -0.270238
v 0.132032 1.39959 -0.0425641
v -0.23465 1.57848 0.128776
v 0.0538363 1.08629 -0.765392
v 0.625192 1.21818 -0.440083
v 0.554898 1.21662 -0.887222
v 0.0315456 1.09786 0.00540007
v -0.0242631 1.1982 -0.472
v -0.0291771 0.835893 0.890677
v -0.634961 1.15386 0.43577
v -0.613146 1.16798 0.968772
v 0.0599124 0.784377 -0.0504372
v 0.145564 0.936807 0.526508
v 0.178552 0.702604 0.814818
v 0.768525 0.864034 0.835762
v 0.747501 0.848822 0.323339
v -0.0110519 0.683596 -0.0455156
v 0.0221751 0.820992 0.497445
v -0.873777 0.660015 -0.324177
v -0.230156 0.876445 -0.837346
v -0.772025 0.943229 -0.950551
v 0.0370449 0.528407 0.0136386
v -0.54288 0.744288 -0.0685696
v -0.599762 0.233993 0.767612
v -0.912747 0.488945 -0.0347653
v -1.21433 0.522176 0.456441
v 0.0462427 0.164234 -0.0387497
v -0.226709 0.36188 0.528082
vn -0.00115291 -0.0536831 -0.998557
vt -0.591758 0.562926
vn 0.00110167 -0.0685225 -0.997649
vt -0.591758 0.0823
vn -0.865485 0.0322528 0.499896
vt -0.258425 0.562926
vn -0.866603 0.0277109 0.498227
vt -0.258425 0.0823
vn 0.866462 0.0450611 0.497204
vt 0.0749087 0.562926
vn 0.865014 0.0640477 0.497644
vt 0.0749087 0.0823
vn -0.00115291 -0.0536831 -0.998557
vt 0.408242 0.562926
vn 0.00110167 -0.0685225 -0.997649
vt 0.408242 0.0823
vn -0.000442147 0.0398238 -0.999207
vt -0.591758 1.04258
vn -0.862382 0.057501 0.502981
vt -0.258425 1.04258
vn 0.864576 -0.0744072 0.496962
vt 0.0749087 1.04258
vn -0.000442147 0.0398238 -0.999207
vt 0.408242 1.04258
vn -0.00325704 0.0329977 -0.99945
vt -0.591758 1.52973
vn -0.857906 0.0895968 0.505935
vt -0.258425 1.52973
vn 0.863756 -0.0989673 0.494097
vt 0.0749087 1.52973
vn -0.00325704 0.0329977 -0.99945
vt 0.408242 1.52973
vn 0.00616368 -0.105651 -0.994384
vt -0.591758 2.01105
vn -0.866487 0.119626 0.484654
vt -0.258425 2.01105
vn 0.86182 0.00885906 0.507137
vt 0.0749087 2.01105
vn 0.00616368 -0.105651 -0.994384
vt 0.408242 2.01105
vn -0.00399758 -0.0429314 -0.99907
vt -0.591758 2.49743
vn -0.852307 0.163755 0.496747
vt -0.258425 2.49743
vn 0.859827 -0.0977775 0.501137
vt 0.0749087 2.49743
vn -0.00399758 -0.0429314 -0.99907
vt 0.408242 2.49743
vn -0.00191598 -0.000734731 -0.999998
vt -0.591758 2.99192
vn -0.857613 0.11415 0.501468
vt -0.258425 2.99192
vn 0.862301 -0.0900611 0.498323
vt 0.0749087 2.99192
vn -0.00191598 -0.000734731 -0.999998
vt 0.408242 2.99192
vn 0.00714056 -0.0133213 -0.999886
vt -0.591758 3.47258
vn -0.867094 0.0727484 0.492803
vt -0.258425 3.47258
vn 0.861433 -0.0359733 0.506596
vt 0.0749087 3.47258
vn 0.00714056 -0.0133213 -0.999886
vt 0.408242 3.47258
vn -0.0016595 0.046191 -0.998931
vt -0.591758 3.95649
vn -0.855657 0.105231 0.506732
vt -0.258425 3.95649
vn 0.860461 -0.12837 0.49308
vt 0.0749087 3.95649
vn -0.0016595 0.046191 -0.998931
vt 0.408242 3.95649
vn 0.599936 0.792665 -0.108437
vt 0.76112 0.578254
vn -0.129509 0.696221 -0.706048
vt 0.68369 0.425041
vn 0.396332 0.82607 0.40066
vt 0.828665 0.499176
vn -0.763068 0.576843 0.291513
vt 0.784653 0.292079
vn -0.406531 0.912834 0.0383103
vt 0.76112 0.578254
vn 0.0931251 0.905931 0.413057
vt 0.828665 0.499176
vn -0.145397 0.662131 -0.735148
vt 0.68369 0.425041
vn 0.911464 0.36671 -0.186432
vt 0.784653 0.292079
vn -0.430772 0.902288 -0.0176546
vt 0.76112 0.578254
vn -0.207215 0.882864 0.421442
vt 0.828665 0.499176
vn 0.238155 0.640795 -0.729838
vt 0.68369 0.425041
vn 0.89345 0.403691 0.196927
vt 0.784653 0.292079
vn 0.525433 0.822367 0.218249
vt 0.76112 0.578254
vn 0.25888 0.903878 -0.340567
vt 0.828665 0.499176
vn -0.0980038 0.630735 0.769785
vt 0.68369 0.425041
vn -0.820213 0.529399 -0.216767
vt 0.784653 0.292079
vn -0.233925 0.889575 -0.392346
vt 0.76112 0.578254
vn -0.328606 0.728351 0.601268
vt 0.68369 0.425041
vn 0.238605 0.82178 -0.517441
vt 0.828665 0.499176
vn 0.776455 0.393952 0.491853
vt 0.784653 0.292079
vn 0.537796 0.806483 0.245685
vt 0.76112 0.578254
vn 0.528687 0.806318 -0.265219
vt 0.828665 0.499176
vn -0.394445 0.718704 0.572606
vt 0.68369 0.425041
vn -0.617864 0.550101 -0.561811
vt 0.784653 0.292079
vn 0.435027 0.822175 0.367124
vt 0.76112 0.578254
vn 0.638888 0.765658 -0.0747716
vt 0.828665 0.499176
vn -0.573672 0.774901 0.265384
vt 0.68369 0.425041
vn -0.290399 0.491504 -0.821031
vt 0.784653 0.292079
vn -0.197397 0.844918 -0.49714
vt 0.76112 0.578254
vn -0.414525 0.909086 -0.0416151
vt 0.828665 0.499176
vn 0.745709 0.563301 -0.355824
vt 0.68369 0.425041
vn 0.404403 0.510002 0.759181
vt 0.784653 0.292079
vn 0.0145799 0.910439 0.413387
vt 0.76112 0.578254
vn 0.470082 0.880309 0.063863
vt 0.828665 0.499176
vn -0.725987 0.683304 -0.0777038
vt 0.68369 0.425041
vn 0.0708434 0.37854 -0.92287
vt 0.784653 0.292079
vn 0.126869 0.812248 -0.569348
vt 0.76112 0.578254
vn -0.327375 0.918776 -0.220629
vt 0.828665 0.499176
vn 0.823485 0.565792 -0.0418631
vt 0.68369 0.425041
vn 0.00277087 0.542817 0.839846
vt 0.784653 0.292079
vn 0.25371 0.857629 -0.44733
vt 0.76112 0.578254
vn -0.647504 0.695646 -0.311151
vt 0.68369 0.425041
vn 0.506431 0.860103 0.0612404
vt 0.828665 0.499176
vn -0.315491 0.479759 0.818716
vt 0.784653 0.292079
vn -0.187984 0.870214 0.4554
vt 0.76112 0.578254
vn 0.380924 0.861281 0.336292
vt 0.828665 0.499176
vn -0.632136 0.705344 -0.320771
vt 0.68369 0.425041
vn 0.460242 0.45587 -0.761813
vt 0.784653 0.292079
vn 0.509454 0.830594 -0.224876
vt 0.76112 0.578254
vn -0.0709551 0.922691 -0.378954
vt 0.828665 0.499176
vn 0.520189 0.589875 0.617617
vt 0.68369 0.425041
vn -0.690478 0.512865 0.510108
vt 0.784653 0.292079
vn -0.346851 0.879432 0.326028
vt 0.76112 0.578254
vn 0.140825 0.882583 0.44857
vt 0.828665 0.499176
vn -0.426799 0.637202 -0.641729
vt 0.68369 0.425041
vn 0.717252 0.450856 -0.531299
vt 0.784653 0.292079
vn 0.426355 0.901915 0.0690757
vt 0.76112 0.578254
vn 0.532438 0.321988 0.782837
vt 0.68369 0.425041
vn 0.650058 0.652502 -0.389444
vt 0.828665 0.499176
vn 0.888964 -0.454568 -0.0557694
vt 0.784653 0.292079
vn 0.724623 0.509222 -0.464343
vt 0.428904 0.776224
vn 0.0792204 0.852141 -0.517281
vt 0.179487 0.93007
vn -0.437182 0.872566 -0.217947
vt 0.0349651 0.757576
vn 0.0510791 0.53774 0.841562
vt 0.181818 0.382284
vn 0.839556 0.509264 0.189198
vt 0.34965 0.573427
vn 0.703094 0.478276 0.526222
vt 0.428904 0.776224
vn -0.406639 0.903693 0.134104
vt 0.0349651 0.757576
vn 0.174416 0.855467 0.487602
vt 0.179487 0.93007
vn 0.0481675 0.51225 -0.857484
vt 0.181818 0.382284
vn 0.845281 0.508311 -0.164683
vt 0.34965 0.573427
vn 0.382284 0.512997 0.768565
vt 0.428904 0.776224
vn 0.577409 0.79204 0.198169
vt 0.179487 0.93007
vn 0.41425 0.792106 -0.448291
vt 0.0349651 0.757576
vn -0.728781 0.632569 -0.262171
vt 0.181818 0.382284
vn -0.297681 0.654227 0.69525
vt 0.34965 0.573427
vn -0.502525 0.714739 0.486432
vt 0.428904 0.776224
vn 0.0430882 0.777487 -0.627421
vt 0.0349651 0.757576
vn -0.342301 0.904241 -0.255299
vt 0.179487 0.93007
vn 0.878048 0.423802 0.222315
vt 0.181818 0.382284
vn 0.062553 0.628227 0.775512
vt 0.34965 0.573427
vn -0.261645 0.592014 -0.762274
vt 0.428904 0.776224
vn 0.675463 0.736302 0.0401127
vt 0.0349651 0.757576
vn 0.435184 0.781407 -0.447235
vt 0.179487 0.93007
vn -0.399358 0.634278 0.66197
vt 0.181818 0.382284
vn -0.694616 0.654805 -0.297891
vt 0.34965 0.573427
vn 0.352954 0.517778 0.779313
vt 0.428904 0.776224
vn -0.420602 0.899118 -0.121165
vt 0.0349651 0.757576
vn -0.120166 0.880495 0.458572
vt 0.179487 0.93007
vn 0.499312 0.476763 -0.723453
vt 0.181818 0.382284
vn 0.820976 0.502835 0.270473
vt 0.34965 0.573427
vn -0.124609 0.609746 0.78274
vt 0.428904 0.776224
vn 0.476136 0.805564 0.35265
vt 0.179487 0.93007
vn 0.636646 0.747828 -0.188243
vt 0.0349651 0.757576
vn -0.511483 0.602967 -0.612222
vt 0.181818 0.382284
vn -0.63861 0.663077 0.39052
vt 0.34965 0.573427
vn -0.771342 0.627664 0.105209
vt 0.428904 0.776224
vn 0.321473 0.831193 -0.453622
vt 0.0349651 0.757576
vn -0.291296 0.899736 -0.324995
vt 0.179487 0.93007
vn 0.612051 0.460949 0.642588
vt 0.181818 0.382284
vn -0.413526 0.602477 0.682655
vt 0.34965 0.573427
vn -0.176678 0.56599 0.805258
vt 0.428904 0.776224
vn -0.355421 0.844018 -0.401635
vt 0.0349651 0.757576
vn -0.404256 0.871685 0.277025
vt 0.179487 0.93007
vn 0.755809 0.512658 -0.40735
vt 0.181818 0.382284
vn 0.500409 0.61219 0.612221
vt 0.34965 0.573427
g shrub1_LOD1SG
usemtl leafCluster1_Mat
s 1

f 88/97/97 89/98/98 90/99/99 
f 91/100/100 92/101/101 90/99/99 
f 88/97/97 90/99/99 92/101/101 
f 93/102/102 94/103/103 95/104/104 
f 96/105/105 94/103/103 97/106/106 
f 93/102/102 97/106/106 94/103/103 
f 98/107/107 99/108/108 100/109/109 
f 101/110/110 102/111/111 100/109/109 
f 98/107/107 100/109/109 102/111/111 
f 103/112/112 104/113/113 105/114/114 
f 106/115/115 104/113/113 107/116/116 
f 103/112/112 107/116/116 104/113/113 
f 108/117/117 109/118/118 110/119/119 
f 111/120/120 109/118/118 112/121/121 
f 108/117/117 112/121/121 109/118/118 
f 113/122/122 114/123/123 115/124/124 
f 116/125/125 114/123/123 117/126/126 
f 113/122/122 117/126/126 114/123/123 
f 118/127/127 119/128/128 120/129/129 
f 121/130/130 122/131/131 120/129/129 
f 118/127/127 120/129/129 122/131/131 
f 123/132/132 124/133/133 125/134/134 
f 126/135/135 124/133/133 127/136/136 
f 123/132/132 127/136/136 124/133/133 
f 128/137/137 129/138/138 130/139/139 
f 131/140/140 129/138/138 132/141/141 
f 128/137/137 132/141/141 129/138/138 

usemtl bark1_Mat
s 1

f 1/1/1 2/2/2 3/3/3 
f 4/4/4 3/3/3 2/2/2 
f 3/3/3 4/4/4 5/5/5 
f 6/6/6 5/5/5 4/4/4 
f 5/5/5 6/6/6 1/7/7 
f 2/8/8 1/7/7 6/6/6 
f 7/9/9 1/1/1 8/10/10 
f 3/3/3 8/10/10 1/1/1 
f 8/10/10 3/3/3 9/11/11 
f 5/5/5 9/11/11 3/3/3 
f 9/11/11 5/5/5 7/12/12 
f 1/7/7 7/12/12 5/5/5 
f 10/13/13 7/9/9 11/14/14 
f 8/10/10 11/14/14 7/9/9 
f 11/14/14 8/10/10 12/15/15 
f 9/11/11 12/15/15 8/10/10 
f 12/15/15 9/11/11 10/16/16 
f 7/12/12 10/16/16 9/11/11 
f 13/17/17 10/13/13 14/18/18 
f 11/14/14 14/18/18 10/13/13 
f 14/18/18 11/14/14 15/19/19 
f 12/15/15 15/19/19 11/14/14 
f 15/19/19 12/15/15 13/20/20 
f 10/16/16 13/20/20 12/15/15 
f 16/21/21 13/17/17 17/22/22 
f 14/18/18 17/22/22 13/17/17 
f 17/22/22 14/18/18 18/23/23 
f 15/19/19 18/23/23 14/18/18 
f 18/23/23 15/19/19 16/24/24 
f 13/20/20 16/24/24 15/19/19 
f 19/25/25 16/21/21 20/26/26 
f 17/22/22 20/26/26 16/21/21 
f 20/26/26 17/22/22 21/27/27 
f 18/23/23 21/27/27 17/22/22 
f 21/27/27 18/23/23 19/28/28 
f 16/24/24 19/28/28 18/23/23 
f 22/29/29 19/25/25 23/30/30 
f 20/26/26 23/30/30 19/25/25 
f 23/30/30 20/26/26 24/31/31 
f 21/27/27 24/31/31 20/26/26 
f 24/31/31 21/27/27 22/32/32 
f 19/28/28 22/32/32 21/27/27 
f 25/33/33 22/29/29 26/34/34 
f 23/30/30 26/34/34 22/29/29 
f 26/34/34 23/30/30 27/35/35 
f 24/31/31 27/35/35 23/30/30 
f 27/35/35 24/31/31 25/36/36 
f 22/32/32 25/36/36 24/31/31 

usemtl leafCluster2_Mat
s 1

f 28/37/37 29/38/38 30/39/39 
f 29/38/38 31/40/40 30/39/39 
f 32/41/41 33/42/42 34/43/43 
f 34/43/43 33/42/42 35/44/44 
f 36/45/45 37/46/46 38/47/47 
f 38/47/47 37/46/46 39/48/48 
f 40/49/49 41/50/50 42/51/51 
f 42/51/51 41/50/50 43/52/52 
f 44/53/53 45/54/54 46/55/55 
f 45/54/54 47/56/56 46/55/55 
f 48/57/57 49/58/58 50/59/59 
f 50/59/59 49/58/58 51/60/60 
f 52/61/61 53/62/62 54/63/63 
f 54/63/63 53/62/62 55/64/64 
f 56/65/65 57/66/66 58/67/67 
f 58/67/67 57/66/66 59/68/68 
f 60/69/69 61/70/70 62/71/71 
f 62/71/71 61/70/70 63/72/72 
f 64/73/73 65/74/74 66/75/75 
f 66/75/75 65/74/74 67/76/76 
f 68/77/77 69/78/78 70/79/79 
f 69/78/78 71/80/80 70/79/79 
f 72/81/81 73/82/82 74/83/83 
f 74/83/83 73/82/82 75/84/84 
f 76/85/85 77/86/86 78/87/87 
f 78/87/87 77/86/86 79/88/88 
f 80/89/89 81/90/90 82/91/91 
f 82/91/91 81/90/90 83/92/92 
f 84/93/93 85/94/94 86/95/95 
f 85/94/94 87/96/96 86/95/95 



